<svg width="15" height="15" viewBox="0 0 15 15" fill="none" xmlns="http://www.w3.org/2000/svg">
<g clip-path="url(#clip0_11_126)">
<path d="M13.7322 0.339355H1.47948C0.997859 0.339355 0.605835 0.731379 0.605835 1.21301V10.6657C0.605835 11.1473 0.997859 11.5394 1.47948 11.5394H4.67382C4.85146 11.7515 5.0723 11.9571 5.28967 12.1567C5.6793 12.514 6.12097 12.9192 6.07658 13.2038C6.04775 13.3896 5.79127 13.6031 5.35462 13.8051C5.23523 13.8604 5.17052 13.9912 5.19875 14.1195C5.2271 14.2479 5.34087 14.3394 5.47222 14.3394H9.7395C9.87085 14.3394 9.98462 14.2479 10.0129 14.1195C10.0412 13.9912 9.97637 13.8604 9.8571 13.8051C9.42033 13.6031 9.16385 13.3896 9.13502 13.2038C9.09075 12.9192 9.5323 12.514 9.92194 12.1567C10.1393 11.9571 10.3601 11.7515 10.5379 11.5394H13.7322C14.2139 11.5394 14.6059 11.1473 14.6059 10.6657V1.21301C14.6059 0.731379 14.2139 0.339355 13.7322 0.339355V0.339355ZM1.47948 0.899338H13.7322C13.9051 0.899338 14.0458 1.04002 14.0458 1.21301V8.94917H1.16582V1.21301C1.16582 1.04002 1.3065 0.899338 1.47948 0.899338ZM9.54343 11.7439C9.02615 12.2184 8.49117 12.709 8.58173 13.2899C8.60877 13.464 8.6906 13.6265 8.82865 13.7793H6.38307C6.52113 13.6265 6.60283 13.464 6.62999 13.2899C6.72043 12.709 6.18545 12.2184 5.66829 11.7439C5.59448 11.6762 5.52079 11.6078 5.44829 11.5394H9.76331C9.69093 11.6078 9.61724 11.6762 9.54343 11.7439ZM13.7322 10.9794H1.47948C1.3065 10.9794 1.16582 10.8387 1.16582 10.6657V9.50927H14.0458V10.6657C14.0458 10.8387 13.9051 10.9794 13.7322 10.9794Z" fill="white"/>
<path d="M7.48338 8.17744C7.52202 8.1961 7.56401 8.20555 7.60576 8.20555C7.64763 8.20555 7.68962 8.1961 7.72814 8.17744C9.49829 7.31695 10.6421 5.48926 10.6421 3.52124V3.16343C10.6421 3.00875 10.5167 2.88338 10.362 2.88338C9.00769 2.88338 8.73566 2.51588 8.73566 1.92312C8.73566 1.76844 8.61029 1.64307 8.45561 1.64307H6.75592C6.60136 1.64307 6.47599 1.76844 6.47599 1.92312C6.47599 2.51588 6.20383 2.88338 4.84951 2.88338C4.69495 2.88338 4.56958 3.00875 4.56958 3.16343V3.52124C4.56958 5.48926 5.71335 7.31695 7.48338 8.17744ZM5.12956 3.44049C5.80618 3.42147 6.86227 3.27839 7.01683 2.20305H8.19481C8.34926 3.27839 9.40546 3.42147 10.0821 3.44049V3.52124C10.0821 5.23062 9.11464 6.8212 7.60576 7.61195C6.097 6.8212 5.12956 5.23062 5.12956 3.52124V3.44049Z" fill="white"/>
<path d="M7.2092 6.04606C7.28086 6.04606 7.35252 6.01867 7.40719 5.964L9.09097 4.28022C9.20031 4.17088 9.20031 3.99359 9.09097 3.88425C8.98163 3.77491 8.80445 3.77491 8.69499 3.88425L7.2092 5.37016L6.51655 4.67751C6.40721 4.56817 6.23004 4.56817 6.12058 4.67751C6.01124 4.78685 6.01124 4.96402 6.12058 5.07348L7.01122 5.964C7.06589 6.01867 7.13755 6.04606 7.2092 6.04606V6.04606Z" fill="white"/>
</g>
<defs>
<clipPath id="clip0_11_126">
<rect width="14" height="14" fill="white" transform="translate(0.605835 0.339355)"/>
</clipPath>
</defs>
</svg>
