<svg width="38" height="38" viewBox="0 0 38 38" fill="none" xmlns="http://www.w3.org/2000/svg">
<path d="M30.875 0C26.9488 0 23.75 3.19883 23.75 7.125C23.75 11.0512 26.9488 14.25 30.875 14.25C34.8012 14.25 38 11.0512 38 7.125C38 3.19883 34.8012 0 30.875 0ZM30.875 9.5C29.5613 9.5 28.5 8.43867 28.5 7.125C28.5 5.81133 29.5613 4.75 30.875 4.75C32.1887 4.75 33.25 5.81133 33.25 7.125C33.25 8.43867 32.1887 9.5 30.875 9.5ZM19 8.3125C19 3.71836 15.2816 0 10.6875 0C6.09336 0 2.375 3.71836 2.375 8.3125V20.6699C0.912891 22.5031 0 24.7891 0 27.3125C0 33.2129 4.78711 38 10.6875 38C16.5879 38 21.375 33.2129 21.375 27.3125C21.375 24.7891 20.4621 22.4957 19 20.6699V8.3125ZM10.6875 33.25C7.41445 33.25 4.75 30.5855 4.75 27.3125C4.75 25.4199 5.65547 23.6832 7.125 22.5773V8.3125C7.125 6.3457 8.7207 4.75 10.6875 4.75C12.6543 4.75 14.25 6.3457 14.25 8.3125V22.5773C15.7195 23.6758 16.625 25.4199 16.625 27.3125C16.625 30.5855 13.9605 33.25 10.6875 33.25ZM11.875 23.9652V8.3125C11.875 7.65938 11.3406 7.125 10.6875 7.125C10.0344 7.125 9.5 7.65938 9.5 8.3125V23.9652C8.11953 24.4551 7.125 25.7613 7.125 27.3125C7.125 29.2793 8.7207 30.875 10.6875 30.875C12.6543 30.875 14.25 29.2793 14.25 27.3125C14.25 25.7613 13.2555 24.4551 11.875 23.9652Z" fill="#F2F2F2"/>
</svg>
