<svg width="38" height="38" viewBox="0 0 38 38" fill="none" xmlns="http://www.w3.org/2000/svg">
<path d="M33.25 4.75H31.3218C32.5405 6.84891 33.25 9.27809 33.25 11.875C33.25 19.7325 26.8575 26.125 19 26.125C11.1425 26.125 4.75 19.7325 4.75 11.875C4.75 9.27809 5.45953 6.84891 6.6782 4.75H4.75C2.13082 4.75 0 6.88082 0 9.5V33.25C0 35.8692 2.13082 38 4.75 38H33.25C35.8692 38 38 35.8692 38 33.25V9.5C38 6.88082 35.8692 4.75 33.25 4.75ZM19 23.75C25.5587 23.75 30.875 18.4337 30.875 11.875C30.875 5.31629 25.5587 0 19 0C12.4413 0 7.125 5.31629 7.125 11.875C7.125 18.4337 12.4413 23.75 19 23.75ZM18.9777 12.4732L21.47 6.65742C21.7298 6.05105 22.4304 5.77273 23.0308 6.03324C23.6335 6.29152 23.9125 6.98992 23.655 7.59184L21.1561 13.4217C21.6518 13.9531 21.9688 14.6545 21.9688 15.4375C21.9688 17.077 20.6395 18.4062 19 18.4062C17.3605 18.4062 16.0312 17.077 16.0312 15.4375C16.0312 13.8062 17.3494 12.4858 18.9777 12.4732Z" fill="#F2F2F2"/>
</svg>
